<svg width="28" height="28" viewBox="0 0 28 28" fill="none" xmlns="http://www.w3.org/2000/svg">
<path fill-rule="evenodd" clip-rule="evenodd" d="M2.80003 5.59998C2.28457 5.59998 1.8667 6.01785 1.8667 6.53331C1.8667 7.04877 2.28457 7.46664 2.80003 7.46664H14H25.2C25.7154 7.46664 26.1334 7.04877 26.1334 6.53331C26.1334 6.01785 25.7154 5.59998 25.2 5.59998H2.80003ZM1.8667 14C1.8667 13.4845 2.28457 13.0666 2.80003 13.0666H25.2C25.7154 13.0666 26.1334 13.4845 26.1334 14C26.1334 14.5154 25.7154 14.9333 25.2 14.9333H2.80003C2.28457 14.9333 1.8667 14.5154 1.8667 14ZM1.8667 21.4666C1.8667 20.9513 2.28457 20.5333 2.80003 20.5333H25.2C25.7154 20.5333 26.1334 20.9513 26.1334 21.4666C26.1334 21.982 25.7154 22.4 25.2 22.4H2.80003C2.28457 22.4 1.8667 21.982 1.8667 21.4666Z" fill="black"/>
</svg>
