<svg width="18" height="18" viewBox="0 0 18 18" fill="none" xmlns="http://www.w3.org/2000/svg">
<path d="M2.76544 12.1705C2.69383 12.2382 2.6096 12.2911 2.51755 12.3262C2.42551 12.3613 2.32745 12.3779 2.22897 12.3752C2.13049 12.3724 2.03353 12.3502 1.94362 12.31C1.85371 12.2697 1.7726 12.2121 1.70494 12.1405C1.63727 12.0689 1.58437 11.9847 1.54927 11.8926C1.51415 11.8006 1.49752 11.7026 1.5003 11.6041C1.50308 11.5056 1.52524 11.4086 1.5655 11.3187C1.60576 11.2288 1.66333 11.1477 1.73494 11.08L8.4849 4.70501C8.62417 4.57336 8.80852 4.5 9.00015 4.5C9.19185 4.5 9.3762 4.57336 9.5154 4.70501L16.2661 11.08C16.3393 11.1473 16.3984 11.2283 16.44 11.3186C16.4815 11.4088 16.5048 11.5064 16.5083 11.6057C16.5118 11.705 16.4956 11.804 16.4605 11.897C16.4255 11.99 16.3723 12.075 16.3041 12.1472C16.2359 12.2195 16.154 12.2774 16.0632 12.3178C15.9724 12.3581 15.8745 12.38 15.7751 12.3821C15.6758 12.3843 15.577 12.3668 15.4846 12.3304C15.3921 12.2941 15.3077 12.2397 15.2365 12.1705L9.00015 6.28151L2.76544 12.1705Z" fill="#666666"/>
</svg>
