<svg width="24" height="24" viewBox="0 0 24 24" fill="none" xmlns="http://www.w3.org/2000/svg">
<path d="M16.2273 3.68725C16.3176 3.59178 16.3881 3.47947 16.4349 3.35674C16.4817 3.23401 16.5039 3.10327 16.5002 2.97196C16.4965 2.84066 16.4669 2.71138 16.4133 2.59149C16.3596 2.47161 16.2828 2.36347 16.1873 2.27325C16.0919 2.18303 15.9796 2.1125 15.8568 2.06569C15.7341 2.01887 15.6034 1.99669 15.4721 2.0004C15.3408 2.00411 15.2115 2.03365 15.0916 2.08733C14.9717 2.14101 14.8636 2.21778 14.7733 2.31325L6.27334 11.3132C6.09781 11.4989 6 11.7447 6 12.0002C6 12.2558 6.09781 12.5016 6.27334 12.6872L14.7733 21.6882C14.863 21.7858 14.9711 21.8646 15.0914 21.92C15.2117 21.9754 15.3419 22.0064 15.4743 22.0111C15.6067 22.0158 15.7387 21.9942 15.8626 21.9474C15.9866 21.9007 16.1 21.8298 16.1963 21.7388C16.2927 21.6479 16.3699 21.5387 16.4237 21.4176C16.4775 21.2965 16.5067 21.166 16.5095 21.0335C16.5124 20.9011 16.489 20.7694 16.4405 20.6461C16.3921 20.5228 16.3196 20.4103 16.2273 20.3153L8.37534 12.0002L16.2273 3.68725Z" fill="#262626"/>
</svg>
