<svg width="32" height="32" viewBox="0 0 32 32" fill="none" xmlns="http://www.w3.org/2000/svg">
<g clip-path="url(#clip0_223_5579)">
<mask id="mask0_223_5579" style="mask-type:luminance" maskUnits="userSpaceOnUse" x="0" y="0" width="32" height="32">
<path d="M0 0H32V32H0V0Z" fill="white"/>
</mask>
<g mask="url(#mask0_223_5579)">
<mask id="mask1_223_5579" style="mask-type:luminance" maskUnits="userSpaceOnUse" x="0" y="0" width="32" height="32">
<path d="M32 0H0V32H32V0Z" fill="white"/>
</mask>
<g mask="url(#mask1_223_5579)">
<path d="M0 16C0 16.9421 0 17.0467 0.0224508 17.8467C0.08232 19.6187 0.26941 21.6524 0.980354 23.7982C1.48176 25.3158 2.4247 26.9532 3.36762 27.985C4.565 29.3008 6.21888 30.3774 8.00748 30.9906C9.83348 31.6186 11.8092 31.9252 15.6483 32H16.3592C20.2058 31.9178 22.174 31.6186 24 30.9906C25.7886 30.3774 27.435 29.3008 28.6322 27.985C29.5754 26.9458 30.5182 25.3158 31.0198 23.7982C31.7306 21.6524 31.9252 19.6112 31.9774 17.8467C32 17.0542 32 16.9421 32 16C32 15.0579 32 14.9533 31.9774 14.1533C31.9178 12.3813 31.7306 10.3477 31.0198 8.20186C30.5182 6.68412 29.5754 5.04672 28.6322 4.01494C27.435 2.69906 25.7812 1.62243 24 1.00935C22.174 0.381308 20.1984 0.0747662 16.3592 0H15.6483C11.8017 0.0822428 9.83348 0.381308 8.00748 1.00935C6.21888 1.62243 4.57248 2.69906 3.36762 4.01494C2.4247 5.0542 1.48176 6.68412 0.980354 8.20186C0.276894 10.3477 0.08232 12.3813 0.0224508 14.1533C0 14.9458 0 15.0579 0 16Z" fill="#0062B5"/>
<path d="M25.0158 11.9435H23.7678V15.1653H18.6558V11.9435H17.4078C17.0878 11.9755 16.8478 12.2553 16.8718 12.5831V19.3943C16.8478 19.7221 17.0878 20.0019 17.4078 20.0339H18.6558V16.5643H23.7678V20.0259H25.0158C25.3438 19.9939 25.5758 19.7141 25.5518 19.3863V12.5751C25.5758 12.2473 25.3358 11.9675 25.0158 11.9355" fill="white"/>
<path d="M14.7839 11.9436H13.5359V18.1392L9.77594 13.1907C9.15194 12.4712 8.71994 11.9436 7.71994 11.9436H6.44794V19.3944C6.42394 19.7221 6.66394 20.0019 6.98394 20.0339H8.23194V13.8063L12.0159 18.7228C12.6559 19.4583 13.2239 20.0339 14.1519 20.0339H15.3199V12.5831C15.3439 12.2554 15.1039 11.9756 14.7839 11.9436Z" fill="white"/>
</g>
</g>
</g>
<defs>
<clipPath id="clip0_223_5579">
<rect width="32" height="32" fill="white"/>
</clipPath>
</defs>
</svg>
