<svg width="36" height="36" viewBox="0 0 36 36" fill="none" xmlns="http://www.w3.org/2000/svg">
<mask id="path-1-inside-1_124_334" fill="white">
<path d="M15.709 4.50879C16.9783 3.81369 18.5335 3.8317 19.7842 4.55566L29.75 10.3242C30.4665 10.739 30.9952 11.3271 31.3252 11.9941C31.8095 12.6557 32.0957 13.4717 32.0957 14.3545V28.2578C32.0957 30.467 30.3048 32.2578 28.0957 32.2578H7C4.79086 32.2578 3 30.467 3 28.2578V14.3545C3 14.0599 3.03235 13.7725 3.09277 13.4961C3.17033 12.2205 3.8789 10.988 5.15137 10.291L15.709 4.50879Z"/>
</mask>
<path d="M15.709 4.50879L14.7483 2.7546L14.7483 2.75464L15.709 4.50879ZM19.7842 4.55566L18.7823 6.2866L18.7823 6.2866L19.7842 4.55566ZM29.75 10.3242L30.7519 8.59328L30.7519 8.59328L29.75 10.3242ZM31.3252 11.9941L29.5326 12.881L29.6093 13.036L29.7114 13.1755L31.3252 11.9941ZM3.09277 13.4961L5.04664 13.9232L5.07969 13.772L5.08909 13.6175L3.09277 13.4961ZM5.15137 10.291L4.19065 8.53687L4.19056 8.53692L5.15137 10.291ZM15.709 4.50879L16.6696 6.26297C17.3265 5.90325 18.1375 5.91341 18.7823 6.2866L19.7842 4.55566L20.7861 2.82473C18.9294 1.74999 16.63 1.72413 14.7483 2.7546L15.709 4.50879ZM19.7842 4.55566L18.7823 6.2866L28.7481 12.0552L29.75 10.3242L30.7519 8.59328L20.7861 2.82473L19.7842 4.55566ZM29.75 10.3242L28.7481 12.0552C29.1172 12.2688 29.3739 12.5603 29.5326 12.881L31.3252 11.9941L33.1178 11.1073C32.6164 10.0939 31.8158 9.2091 30.7519 8.59328L29.75 10.3242ZM31.3252 11.9941L29.7114 13.1755C29.9535 13.5062 30.0957 13.911 30.0957 14.3545H32.0957H34.0957C34.0957 13.0325 33.6656 11.8053 32.939 10.8127L31.3252 11.9941ZM32.0957 14.3545H30.0957V28.2578H32.0957H34.0957V14.3545H32.0957ZM32.0957 28.2578H30.0957C30.0957 29.3624 29.2003 30.2578 28.0957 30.2578V32.2578V34.2578C31.4094 34.2578 34.0957 31.5715 34.0957 28.2578H32.0957ZM28.0957 32.2578V30.2578H7V32.2578V34.2578H28.0957V32.2578ZM7 32.2578V30.2578C5.89543 30.2578 5 29.3624 5 28.2578H3H1C1 31.5715 3.68629 34.2578 7 34.2578V32.2578ZM3 28.2578H5V14.3545H3H1V28.2578H3ZM3 14.3545H5C5 14.2066 5.01621 14.0624 5.04664 13.9232L3.09277 13.4961L1.13891 13.069C1.04849 13.4827 1 13.9132 1 14.3545H3ZM3.09277 13.4961L5.08909 13.6175C5.12635 13.0045 5.46271 12.4009 6.11218 12.0451L5.15137 10.291L4.19056 8.53692C2.2951 9.57516 1.2143 11.4364 1.09646 13.3747L3.09277 13.4961ZM5.15137 10.291L6.11208 12.0452L16.6697 6.26293L15.709 4.50879L14.7483 2.75464L4.19065 8.53687L5.15137 10.291Z" fill="#262626" mask="url(#path-1-inside-1_124_334)"/>
<path d="M12 26H24" stroke="#262626" stroke-width="2" stroke-linecap="round"/>
</svg>
