<svg width="28" height="28" viewBox="0 0 28 28" fill="none" xmlns="http://www.w3.org/2000/svg">
<g clip-path="url(#clip0_134_520)">
<path d="M22.7598 2.39685C23.183 2.39749 23.5893 2.61962 23.8887 3.01501C24.188 3.41044 24.3559 3.94702 24.3564 4.50623V24.5482C24.3564 24.728 24.3221 24.9049 24.2559 25.0619C24.1896 25.2189 24.0933 25.3512 23.9775 25.4457C23.8618 25.5401 23.7296 25.5939 23.5938 25.6019C23.4579 25.6099 23.3228 25.5719 23.2012 25.4916C23.1922 25.486 21.6675 24.5484 20.3652 24.5482C19.059 24.5482 17.5283 25.4916 17.5283 25.4916C17.4176 25.5647 17.2956 25.6028 17.1719 25.6029C17.0479 25.6029 16.9253 25.5648 16.8145 25.4916C16.8145 25.4916 15.2837 24.5482 13.9775 24.5482C12.6718 24.5484 11.1424 25.4911 11.1416 25.4916C11.0307 25.5648 10.9081 25.6029 10.7842 25.6029C10.6604 25.6028 10.5385 25.5647 10.4277 25.4916C10.4277 25.4916 8.89702 24.5482 7.59082 24.5482C6.28987 24.5484 4.76692 25.4842 4.75488 25.4916C4.63328 25.5719 4.49813 25.6099 4.3623 25.6019C4.22648 25.5939 4.0942 25.54 3.97852 25.4457C3.86275 25.3512 3.76647 25.2189 3.7002 25.0619C3.63396 24.9049 3.59961 24.728 3.59961 24.5482V4.50623C3.60015 3.94702 3.7681 3.41044 4.06738 3.01501C4.3667 2.61963 4.77303 2.39749 5.19629 2.39685H22.7598Z" fill="#F17B7B"/>
<path d="M8.88477 7.55383H19.1986" stroke="white" stroke-width="2" stroke-linecap="round"/>
<path d="M8.88477 12.7107H19.1986" stroke="white" stroke-width="2" stroke-linecap="round"/>
<path d="M15.3311 20.4461H25.0003M25.0003 20.4461L21.7772 16.5784M25.0003 20.4461L21.7772 23.6692" stroke="#666666" stroke-width="2.6" stroke-linecap="round" stroke-linejoin="round"/>
</g>
<defs>
<clipPath id="clip0_134_520">
<rect width="28" height="28" fill="white"/>
</clipPath>
</defs>
</svg>
