<svg width="28" height="28" viewBox="0 0 28 28" fill="none" xmlns="http://www.w3.org/2000/svg">
<circle cx="14.5423" cy="24.2917" r="1.95833" stroke="#262626" stroke-width="1.5"/>
<circle cx="14.0007" cy="3.16667" r="1.41667" stroke="#262626" stroke-width="1.5"/>
<mask id="path-3-inside-1_94_233" fill="white">
<path d="M14 3.16663C19.4165 3.16663 23.7498 7.28918 23.75 12.3746C23.75 12.7095 23.7293 13.0403 23.6924 13.3658C23.7284 13.516 23.75 13.6724 23.75 13.8336V17.3043C24.4204 17.9882 24.834 18.9253 24.834 19.9586C24.8338 22.0526 23.136 23.7496 21.042 23.7496H6.95898C4.865 23.7496 3.16715 22.0526 3.16699 19.9586C3.16699 18.9257 3.58013 17.9891 4.25 17.3053V13.8336C4.25 13.6725 4.27068 13.5159 4.30664 13.3658C4.26976 13.0403 4.25 12.7094 4.25 12.3746C4.25021 7.2893 8.64741 3.16681 14 3.16663Z"/>
</mask>
<path d="M14 3.16663C19.4165 3.16663 23.7498 7.28918 23.75 12.3746C23.75 12.7095 23.7293 13.0403 23.6924 13.3658C23.7284 13.516 23.75 13.6724 23.75 13.8336V17.3043C24.4204 17.9882 24.834 18.9253 24.834 19.9586C24.8338 22.0526 23.136 23.7496 21.042 23.7496H6.95898C4.865 23.7496 3.16715 22.0526 3.16699 19.9586C3.16699 18.9257 3.58013 17.9891 4.25 17.3053V13.8336C4.25 13.6725 4.27068 13.5159 4.30664 13.3658C4.26976 13.0403 4.25 12.7094 4.25 12.3746C4.25021 7.2893 8.64741 3.16681 14 3.16663Z" fill="#FAFAFA"/>
<path d="M14 3.16663V1.66663H13.9999L14 3.16663ZM23.75 12.3746H25.25V12.3746L23.75 12.3746ZM23.6924 13.3658L22.2019 13.197L22.1722 13.4591L22.2338 13.7157L23.6924 13.3658ZM23.75 17.3043H22.25V17.9169L22.6788 18.3543L23.75 17.3043ZM24.834 19.9586L26.334 19.9587V19.9586H24.834ZM3.16699 19.9586H1.66699V19.9587L3.16699 19.9586ZM4.25 17.3053L5.32155 18.355L5.75 17.9176V17.3053H4.25ZM4.30664 13.3658L5.76534 13.7154L5.82679 13.459L5.79711 13.197L4.30664 13.3658ZM4.25 12.3746L2.75 12.3746V12.3746H4.25ZM14 3.16663V4.66663C18.6668 4.66663 22.2498 8.19415 22.25 12.3747L23.75 12.3746L25.25 12.3746C25.2498 6.38421 20.1663 1.66663 14 1.66663V3.16663ZM23.75 12.3746H22.25C22.25 12.6476 22.2331 12.9218 22.2019 13.197L23.6924 13.3658L25.1828 13.5347C25.2254 13.1587 25.25 12.7713 25.25 12.3746H23.75ZM23.6924 13.3658L22.2338 13.7157C22.2464 13.7686 22.25 13.8068 22.25 13.8336H23.75H25.25C25.25 13.538 25.2104 13.2634 25.151 13.016L23.6924 13.3658ZM23.75 13.8336H22.25V17.3043H23.75H25.25V13.8336H23.75ZM23.75 17.3043L22.6788 18.3543C23.0856 18.7693 23.334 19.3337 23.334 19.9586H24.834H26.334C26.334 18.5169 25.7552 17.2071 24.8212 16.2543L23.75 17.3043ZM24.834 19.9586L23.334 19.9585C23.3339 21.2237 22.3079 22.2496 21.042 22.2496V23.7496V25.2496C23.964 25.2496 26.3338 22.8814 26.334 19.9587L24.834 19.9586ZM21.042 23.7496V22.2496H6.95898V23.7496V25.2496H21.042V23.7496ZM6.95898 23.7496V22.2496C5.69303 22.2496 4.66709 21.2237 4.66699 19.9585L3.16699 19.9586L1.66699 19.9587C1.66721 22.8814 4.03697 25.2496 6.95898 25.2496V23.7496ZM3.16699 19.9586H4.66699C4.66699 19.3339 4.91513 18.7698 5.32155 18.355L4.25 17.3053L3.17845 16.2556C2.24513 17.2084 1.66699 18.5176 1.66699 19.9586H3.16699ZM4.25 17.3053H5.75V13.8336H4.25H2.75V17.3053H4.25ZM4.25 13.8336H5.75C5.75 13.8013 5.75413 13.7622 5.76534 13.7154L4.30664 13.3658L2.84794 13.0163C2.78723 13.2696 2.75 13.5438 2.75 13.8336H4.25ZM4.30664 13.3658L5.79711 13.197C5.76628 12.9249 5.75 12.6504 5.75 12.3746H4.25H2.75C2.75 12.7684 2.77325 13.1558 2.81617 13.5347L4.30664 13.3658ZM4.25 12.3746L5.75 12.3747C5.75017 8.20051 9.39058 4.66679 14.0001 4.66663L14 3.16663L13.9999 1.66663C7.90424 1.66684 2.75025 6.37808 2.75 12.3746L4.25 12.3746Z" fill="#262626" mask="url(#path-3-inside-1_94_233)"/>
</svg>
