<svg width="16" height="17" viewBox="0 0 16 17" fill="none" xmlns="http://www.w3.org/2000/svg">
<path d="M12.2178 5.35718H6.85512C6.68599 5.35761 6.51859 5.39139 6.36253 5.45658C6.20646 5.52177 6.06477 5.6171 5.94558 5.7371C5.82638 5.8571 5.73202 5.99942 5.66788 6.15592C5.60374 6.31243 5.57109 6.48004 5.57179 6.64918V13.3745C5.57179 14.0878 6.14646 14.6665 6.85512 14.6665H12.2178C12.3869 14.6661 12.5543 14.6323 12.7104 14.5671C12.8665 14.5019 13.0081 14.4066 13.1273 14.2866C13.2465 14.1666 13.3409 14.0243 13.405 13.8678C13.4692 13.7113 13.5018 13.5436 13.5011 13.3745V6.64918C13.5011 5.93584 12.9265 5.35718 12.2178 5.35718Z" stroke="#A3A3A3" stroke-linecap="round" stroke-linejoin="round"/>
<path d="M10.4279 5.35725V3.62525C10.4279 3.28259 10.2925 2.95392 10.0519 2.71192C9.93305 2.59211 9.79172 2.49698 9.63601 2.432C9.48029 2.36701 9.31327 2.33345 9.14453 2.33325H3.78187C3.44187 2.33325 3.1152 2.46925 2.8752 2.71192C2.63435 2.95493 2.49901 3.2831 2.49854 3.62525V10.3506C2.49854 10.6933 2.63387 11.0219 2.87454 11.2639C3.1152 11.5059 3.4412 11.6426 3.78187 11.6426H5.57187" stroke="#A3A3A3" stroke-linecap="round" stroke-linejoin="round"/>
</svg>
